<svg xmlns="http://www.w3.org/2000/svg" viewBox="0 0 187.44 87.1"><defs><style>.cls-1,.cls-2{fill:#fff;}.cls-1,.cls-3{stroke:#fff;stroke-miterlimit:10;}.cls-1{stroke-width:2px;}.cls-3{fill:none;stroke-width:3px;}</style></defs><g id="Layer_2" data-name="Layer 2"><g id="content"><g id="logo"><path class="cls-1" d="M23.86,72.92c0,8.61-5.23,13.18-11.61,13.18C5.64,86.1,1,81,1,73.41c0-8,4.94-13.14,11.62-13.14C19.45,60.27,23.86,65.5,23.86,72.92Zm-19.41.41c0,5.35,2.9,10.13,8,10.13s8-4.71,8-10.39c0-5-2.6-10.17-8-10.17S4.45,67.84,4.45,73.33Z"/><path class="cls-1" d="M31.17,76h.08c.44-.63,1.07-1.41,1.59-2l5.27-6.2h3.94l-6.94,7.38L43,85.69H39l-6.2-8.61-1.67,1.86v6.75H27.94V59.34h3.23Z"/><path class="cls-1" d="M61.6,76.56c0,6.64-4.6,9.54-8.94,9.54-4.86,0-8.61-3.56-8.61-9.24,0-6,3.93-9.54,8.91-9.54C58.11,67.32,61.6,71.07,61.6,76.56Zm-14.25.19c0,3.93,2.26,6.9,5.46,6.9s5.45-2.93,5.45-7c0-3-1.52-6.9-5.38-6.9S47.35,73.33,47.35,76.75Z"/><path class="cls-1" d="M65.27,82.35a8.61,8.61,0,0,0,4.31,1.3c2.38,0,3.49-1.19,3.49-2.67s-.93-2.41-3.34-3.31C66.5,76.52,65,74.74,65,72.59c0-2.9,2.34-5.27,6.2-5.27a9,9,0,0,1,4.41,1.11l-.81,2.38a7,7,0,0,0-3.68-1c-1.93,0-3,1.11-3,2.45s1.07,2.15,3.41,3c3.12,1.19,4.71,2.75,4.71,5.42,0,3.16-2.45,5.38-6.71,5.38a10.27,10.27,0,0,1-5.05-1.22Z"/><path class="cls-2" d="M101.91,73.73c0,8.61-5.24,13.18-11.62,13.18C83.68,86.91,79,81.78,79,74.21,79,66.27,84,61.07,90.66,61.07,97.49,61.07,101.91,66.31,101.91,73.73Zm-19.42.41c0,5.34,2.9,10.13,8,10.13s8-4.71,8-10.39c0-5-2.6-10.17-8-10.17S82.49,68.65,82.49,74.14Z"/><path class="cls-2" d="M110.55,63.38v5.15h4.68V71h-4.68v9.69c0,2.22.63,3.49,2.45,3.49a6.85,6.85,0,0,0,1.89-.23l.15,2.45a8,8,0,0,1-2.89.45,4.53,4.53,0,0,1-3.53-1.37c-.93-1-1.26-2.57-1.26-4.68V71h-2.79V68.53h2.79v-4.3Z"/><path class="cls-2" d="M122.83,63.38v5.15h4.68V71h-4.68v9.69c0,2.22.63,3.49,2.45,3.49a6.88,6.88,0,0,0,1.9-.23l.14,2.45a8,8,0,0,1-2.89.45,4.54,4.54,0,0,1-3.53-1.37c-.92-1-1.26-2.57-1.26-4.68V71h-2.78V68.53h2.78v-4.3Z"/><path class="cls-2" d="M131.18,60.15h3.27V71.36h.07a6.11,6.11,0,0,1,2.34-2.31,6.81,6.81,0,0,1,3.34-.92c2.41,0,6.27,1.48,6.27,7.68V86.5h-3.26V76.18c0-2.9-1.08-5.34-4.16-5.34a4.68,4.68,0,0,0-4.38,3.26,4.08,4.08,0,0,0-.22,1.56V86.5h-3.27Z"/><path class="cls-2" d="M168,77.37c0,6.64-4.6,9.54-8.94,9.54-4.86,0-8.61-3.57-8.61-9.25,0-6,3.93-9.53,8.91-9.53C164.55,68.13,168,71.87,168,77.37Zm-14.25.18c0,3.94,2.27,6.91,5.46,6.91s5.45-2.94,5.45-7c0-3-1.52-6.9-5.38-6.9S153.78,74.14,153.78,77.55Z"/><path class="cls-2" d="M172.15,73.4c0-1.86,0-3.38-.15-4.87h2.9l.18,3h.08a6.62,6.62,0,0,1,5.94-3.37c2.48,0,6.34,1.48,6.34,7.64V86.5h-3.26V76.14c0-2.89-1.08-5.3-4.16-5.3a4.78,4.78,0,0,0-4.6,4.86V86.5h-3.27Z"/><polyline class="cls-3" points="46.95 58.33 46.95 27.09 98.78 1.67 150.61 27.09 150.61 58.33"/></g></g></g></svg>